<svg width="121" height="53" viewBox="0 0 121 53" fill="none" xmlns="http://www.w3.org/2000/svg">
<path d="M63.4987 22.3701H59.4555V39H56.2561V22.3701H53.7598V19.7332H56.2561V18.362C56.2561 16.2056 56.8069 14.6352 57.9085 13.6508C59.0336 12.6429 60.8267 12.139 63.2877 12.139V14.811C61.8814 14.811 60.8853 15.0923 60.2993 15.6548C59.7367 16.1939 59.4555 17.0963 59.4555 18.362V19.7332H63.4987V22.3701ZM70.4285 12.9828V39H67.2291V12.9828H70.4285ZM74.6859 29.2963C74.6859 27.3274 75.0844 25.6046 75.8813 24.128C76.6783 22.6279 77.7682 21.4677 79.1511 20.6473C80.5574 19.8269 82.1161 19.4168 83.8271 19.4168C85.5147 19.4168 86.9797 19.7801 88.2219 20.5067C89.4642 21.2333 90.39 22.1474 90.9994 23.249V19.7332H94.234V39H90.9994V35.4138C90.3666 36.5389 89.4173 37.4765 88.1516 38.2265C86.9094 38.9531 85.4561 39.3164 83.792 39.3164C82.0809 39.3164 80.534 38.8945 79.1511 38.0507C77.7682 37.2069 76.6783 36.0233 75.8813 34.4997C75.0844 32.9762 74.6859 31.2417 74.6859 29.2963ZM90.9994 29.3314C90.9994 27.8782 90.7065 26.6125 90.1205 25.5343C89.5345 24.4561 88.7376 23.6358 87.7297 23.0732C86.7453 22.4873 85.6554 22.1943 84.46 22.1943C83.2646 22.1943 82.1747 22.4755 81.1902 23.0381C80.2058 23.6006 79.4206 24.421 78.8346 25.4992C78.2487 26.5774 77.9557 27.8431 77.9557 29.2963C77.9557 30.7729 78.2487 32.0621 78.8346 33.1637C79.4206 34.2419 80.2058 35.074 81.1902 35.66C82.1747 36.2225 83.2646 36.5038 84.46 36.5038C85.6554 36.5038 86.7453 36.2225 87.7297 35.66C88.7376 35.074 89.5345 34.2419 90.1205 33.1637C90.7065 32.0621 90.9994 30.7846 90.9994 29.3314ZM98.4453 29.2963C98.4453 27.3274 98.8438 25.6046 99.6407 24.128C100.438 22.6279 101.528 21.4677 102.91 20.6473C104.317 19.8269 105.887 19.4168 107.622 19.4168C109.286 19.4168 110.739 19.7918 111.981 20.5418C113.247 21.2684 114.173 22.1708 114.759 23.249V19.7332H117.993V48.1412H114.759V35.449C114.149 36.5272 113.212 37.4413 111.946 38.1914C110.68 38.9414 109.204 39.3164 107.516 39.3164C105.829 39.3164 104.293 38.8945 102.91 38.0507C101.528 37.2069 100.438 36.0233 99.6407 34.4997C98.8438 32.9762 98.4453 31.2417 98.4453 29.2963ZM114.759 29.3314C114.759 27.8782 114.466 26.6125 113.88 25.5343C113.294 24.4561 112.497 23.6358 111.489 23.0732C110.505 22.4873 109.415 22.1943 108.219 22.1943C107.024 22.1943 105.934 22.4755 104.95 23.0381C103.965 23.6006 103.18 24.421 102.594 25.4992C102.008 26.5774 101.715 27.8431 101.715 29.2963C101.715 30.7729 102.008 32.0621 102.594 33.1637C103.18 34.2419 103.965 35.074 104.95 35.66C105.934 36.2225 107.024 36.5038 108.219 36.5038C109.415 36.5038 110.505 36.2225 111.489 35.66C112.497 35.074 113.294 34.2419 113.88 33.1637C114.466 32.0621 114.759 30.7846 114.759 29.3314Z" fill="#666666"/>
<path d="M4.3161 3.14856H37.4771L40.7932 7.7911L27.5288 26.3613L30.8449 31.0038L40.7932 44.9315L37.4771 49.574H4.3161L1 44.9315L14.2644 26.3613L1 7.7911L4.3161 3.14856Z" fill="#666666"/>
<path d="M37.4771 3.14856H4.3161L1 7.7911M37.4771 3.14856L40.7932 7.7911L27.5288 26.3613M37.4771 3.14856L24.2127 21.7187M1 7.7911H27.5288L20.8966 17.0762L17.5805 12.4336M1 7.7911L17.5805 31.0038L4.3161 49.574M1 7.7911L24.2127 40.2889H17.5805H30.8449L10.9483 12.4336M17.5805 12.4336L30.8449 31.0038M17.5805 12.4336L40.7932 44.9315M24.2127 12.4336H10.9483M10.9483 12.4336L24.2127 31.0038M40.7932 44.9315L37.4771 49.574H4.3161M40.7932 44.9315H14.2644L20.8966 35.6464M4.3161 49.574L1 44.9315L14.2644 26.3613" stroke="white" stroke-width="1.0495" stroke-linecap="round" stroke-linejoin="round"/>
</svg>
