<?xml version="1.0" encoding="UTF-8"?>
<svg width="700pt" height="700pt" version="1.1" viewBox="0 0 700 700" xmlns="http://www.w3.org/2000/svg" xmlns:xlink="http://www.w3.org/1999/xlink">
 <defs>
  <symbol id="v" overflow="visible">
   <path d="m16.641-1c-0.86719 0.44922-1.7617 0.78906-2.6875 1.0156-0.92969 0.22656-1.8984 0.34375-2.9062 0.34375-3.0234 0-5.4141-0.84375-7.1719-2.5312-1.7617-1.6875-2.6406-3.9727-2.6406-6.8594 0-2.8945 0.87891-5.1797 2.6406-6.8594 1.7578-1.6875 4.1484-2.5312 7.1719-2.5312 1.0078 0 1.9766 0.11719 2.9062 0.34375 0.92578 0.21875 1.8203 0.55469 2.6875 1v3.75c-0.875-0.59375-1.7344-1.0234-2.5781-1.2969-0.83594-0.28125-1.7148-0.42188-2.6406-0.42188-1.668 0-2.9805 0.53906-3.9375 1.6094-0.94922 1.0625-1.4219 2.5312-1.4219 4.4062 0 1.8672 0.47266 3.3359 1.4219 4.4062 0.95703 1.0625 2.2695 1.5938 3.9375 1.5938 0.92578 0 1.8047-0.13281 2.6406-0.40625 0.84375-0.28125 1.7031-0.71094 2.5781-1.2969z"/>
  </symbol>
  <symbol id="c" overflow="visible">
   <path d="m12.172-9.875c-0.375-0.17578-0.75781-0.30469-1.1406-0.39062-0.375-0.09375-0.75-0.14062-1.125-0.14062-1.1172 0-1.9766 0.35938-2.5781 1.0781-0.60547 0.71875-0.90625 1.7461-0.90625 3.0781v6.25h-4.3438v-13.578h4.3438v2.2344c0.5625-0.89453 1.2031-1.5469 1.9219-1.9531 0.72656-0.40625 1.5977-0.60938 2.6094-0.60938 0.14453 0 0.30078 0.007812 0.46875 0.015625 0.16406 0.011719 0.41016 0.039063 0.73438 0.078125z"/>
  </symbol>
  <symbol id="b" overflow="visible">
   <path d="m15.641-6.8281v1.2344h-10.156c0.11328 1.0234 0.48438 1.7891 1.1094 2.2969 0.63281 0.51172 1.5156 0.76562 2.6406 0.76562 0.91406 0 1.8516-0.13281 2.8125-0.40625 0.95703-0.26953 1.9414-0.67969 2.9531-1.2344v3.3438c-1.0312 0.38672-2.0625 0.67969-3.0938 0.875-1.0234 0.20703-2.043 0.3125-3.0625 0.3125-2.4609 0-4.3711-0.625-5.7344-1.875-1.3672-1.25-2.0469-3.0039-2.0469-5.2656 0-2.207 0.66406-3.9453 2-5.2188 1.3438-1.2695 3.1875-1.9062 5.5312-1.9062 2.1328 0 3.8438 0.64844 5.125 1.9375 1.2812 1.2812 1.9219 2.9961 1.9219 5.1406zm-4.4688-1.4375c0-0.82031-0.24219-1.4844-0.71875-1.9844-0.48047-0.50781-1.1055-0.76562-1.875-0.76562-0.84375 0-1.5312 0.24219-2.0625 0.71875-0.52344 0.46875-0.84375 1.1484-0.96875 2.0312z"/>
  </symbol>
  <symbol id="l" overflow="visible">
   <path d="m8.1719-6.1094c-0.90625 0-1.5898 0.15625-2.0469 0.46875-0.46094 0.30469-0.6875 0.75-0.6875 1.3438 0 0.55469 0.17969 0.98438 0.54688 1.2969 0.375 0.3125 0.89062 0.46875 1.5469 0.46875 0.8125 0 1.4922-0.28906 2.0469-0.875 0.5625-0.59375 0.84375-1.3281 0.84375-2.2031v-0.5zm6.625-1.6406v7.75h-4.375v-2.0156c-0.58594 0.82422-1.2422 1.4297-1.9688 1.8125-0.71875 0.375-1.6016 0.5625-2.6406 0.5625-1.4062 0-2.5547-0.41016-3.4375-1.2344-0.875-0.82031-1.3125-1.8906-1.3125-3.2031 0-1.5938 0.54688-2.7578 1.6406-3.5 1.1016-0.73828 2.8281-1.1094 5.1719-1.1094h2.5469v-0.34375c0-0.6875-0.27344-1.1875-0.8125-1.5-0.54297-0.32031-1.3867-0.48438-2.5312-0.48438-0.92969 0-1.793 0.09375-2.5938 0.28125-0.80469 0.17969-1.5469 0.45312-2.2344 0.82812v-3.3125c0.9375-0.21875 1.875-0.38281 2.8125-0.5 0.9375-0.125 1.875-0.1875 2.8125-0.1875 2.4453 0 4.2109 0.48438 5.2969 1.4531 1.082 0.96875 1.625 2.5391 1.625 4.7031z"/>
  </symbol>
  <symbol id="a" overflow="visible">
   <path d="m6.8281-17.438v3.8594h4.4688v3.1094h-4.4688v5.75c0 0.63672 0.125 1.0625 0.375 1.2812s0.74219 0.32812 1.4844 0.32812h2.2344v3.1094h-3.7188c-1.7188 0-2.9375-0.35156-3.6562-1.0625-0.71094-0.71875-1.0625-1.9375-1.0625-3.6562v-5.75h-2.1562v-3.1094h2.1562v-3.8594z"/>
  </symbol>
  <symbol id="k" overflow="visible">
   <path d="m11.328-11.594v-7.2656h4.3594v18.859h-4.3594v-1.9688c-0.60547 0.80469-1.2656 1.3906-1.9844 1.7656s-1.5547 0.5625-2.5 0.5625c-1.668 0-3.043-0.66406-4.125-2-1.0742-1.332-1.6094-3.0469-1.6094-5.1406s0.53516-3.8008 1.6094-5.125c1.082-1.332 2.457-2 4.125-2 0.9375 0 1.7656 0.1875 2.4844 0.5625 0.72656 0.375 1.3945 0.96094 2 1.75zm-2.8594 8.7969c0.92578 0 1.6328-0.33594 2.125-1.0156 0.48828-0.6875 0.73438-1.6758 0.73438-2.9688 0-1.2891-0.24609-2.2734-0.73438-2.9531-0.49219-0.67578-1.1992-1.0156-2.125-1.0156-0.92969 0-1.6367 0.33984-2.125 1.0156-0.49219 0.67969-0.73438 1.6641-0.73438 2.9531 0 1.293 0.24219 2.2812 0.73438 2.9688 0.48828 0.67969 1.1953 1.0156 2.125 1.0156z"/>
  </symbol>
  <symbol id="j" overflow="visible">
   <path d="m9.3125-2.7969c0.92578 0 1.6328-0.33594 2.125-1.0156 0.48828-0.6875 0.73438-1.6758 0.73438-2.9688 0-1.2891-0.24609-2.2734-0.73438-2.9531-0.49219-0.67578-1.1992-1.0156-2.125-1.0156-0.92969 0-1.6406 0.34375-2.1406 1.0312-0.5 0.67969-0.75 1.6562-0.75 2.9375 0 1.293 0.25 2.2812 0.75 2.9688 0.5 0.67969 1.2109 1.0156 2.1406 1.0156zm-2.8906-8.7969c0.60156-0.78906 1.2656-1.375 1.9844-1.75 0.72656-0.375 1.5664-0.5625 2.5156-0.5625 1.6758 0 3.0508 0.66797 4.125 2 1.0703 1.3242 1.6094 3.0312 1.6094 5.125s-0.53906 3.8086-1.6094 5.1406c-1.0742 1.3359-2.4492 2-4.125 2-0.94922 0-1.7891-0.1875-2.5156-0.5625-0.71875-0.38281-1.3828-0.97266-1.9844-1.7656v1.9688h-4.3438v-18.859h4.3438z"/>
  </symbol>
  <symbol id="i" overflow="visible">
   <path d="m0.29688-13.578h4.3438l3.6562 9.2188 3.0938-9.2188h4.3438l-5.7031 14.859c-0.57422 1.5078-1.2461 2.5664-2.0156 3.1719-0.76172 0.60156-1.7656 0.90625-3.0156 0.90625h-2.5156v-2.8438h1.3594c0.73828 0 1.2734-0.12109 1.6094-0.35938 0.33203-0.23047 0.59375-0.65234 0.78125-1.2656l0.125-0.375z"/>
  </symbol>
  <symbol id="e" overflow="visible">
   <path d="m2.2812-18.094h5.2031l6.5938 12.406v-12.406h4.4219v18.094h-5.2188l-6.5781-12.422v12.422h-4.4219z"/>
  </symbol>
  <symbol id="u" overflow="visible">
   <path d="m2.0781-13.578h4.3438v13.578h-4.3438zm0-5.2812h4.3438v3.5312h-4.3438z"/>
  </symbol>
  <symbol id="h" overflow="visible">
   <path d="m13.062-13.156v3.5469c-0.59375-0.40625-1.1875-0.70312-1.7812-0.89062-0.59375-0.19531-1.2109-0.29688-1.8438-0.29688-1.2188 0-2.168 0.35547-2.8438 1.0625-0.66797 0.69922-1 1.6836-1 2.9531 0 1.2734 0.33203 2.2617 1 2.9688 0.67578 0.71094 1.625 1.0625 2.8438 1.0625 0.67578 0 1.3164-0.097656 1.9219-0.29688 0.61328-0.20703 1.1797-0.50781 1.7031-0.90625v3.5469c-0.6875 0.25-1.3828 0.4375-2.0781 0.5625-0.69922 0.13281-1.3984 0.20312-2.0938 0.20312-2.4492 0-4.3672-0.62891-5.75-1.8906-1.3867-1.2578-2.0781-3.0078-2.0781-5.25 0-2.2383 0.69141-3.9844 2.0781-5.2344 1.3828-1.2578 3.3008-1.8906 5.75-1.8906 0.70703 0 1.4062 0.0625 2.0938 0.1875 0.69531 0.125 1.3906 0.3125 2.0781 0.5625z"/>
  </symbol>
  <symbol id="t" overflow="visible">
   <path d="m2.0781-18.859h4.3438v10.266l5-4.9844h5.0469l-6.6406 6.2344 7.1562 7.3438h-5.2656l-5.2969-5.6562v5.6562h-4.3438z"/>
  </symbol>
  <symbol id="s" overflow="visible">
   <path d="m9.5312-11.094c0.72656 0 1.2812-0.16016 1.6562-0.48438 0.38281-0.32031 0.57812-0.80078 0.57812-1.4375 0-0.61328-0.19531-1.082-0.57812-1.4062-0.375-0.33203-0.92969-0.5-1.6562-0.5h-2.5781v3.8281zm0.15625 7.9219c0.9375 0 1.6406-0.19531 2.1094-0.59375 0.47656-0.39453 0.71875-0.99219 0.71875-1.7969 0-0.78125-0.23438-1.3672-0.70312-1.7656-0.46875-0.39453-1.1797-0.59375-2.125-0.59375h-2.7344v4.75zm4.3438-6.5156c1 0.29297 1.7695 0.83594 2.3125 1.625 0.55078 0.78125 0.82812 1.7422 0.82812 2.875 0 1.75-0.58984 3.0547-1.7656 3.9062-1.1797 0.85547-2.9688 1.2812-5.375 1.2812h-7.75v-18.094h7c2.5195 0 4.3438 0.38281 5.4688 1.1406 1.125 0.75 1.6875 1.9648 1.6875 3.6406 0 0.88672-0.21094 1.6367-0.625 2.25-0.40625 0.61719-1 1.0742-1.7812 1.375z"/>
  </symbol>
  <symbol id="r" overflow="visible">
   <path d="m2.0781-18.859h4.3438v18.859h-4.3438z"/>
  </symbol>
  <symbol id="g" overflow="visible">
   <path d="m1.9375-5.2812v-8.2969h4.3594v1.3594c0 0.74219-0.007813 1.668-0.015625 2.7812v2.2188c0 1.0859 0.023438 1.8711 0.078125 2.3594 0.0625 0.48047 0.16016 0.82812 0.29688 1.0469 0.17578 0.28125 0.40625 0.5 0.6875 0.65625 0.28906 0.14844 0.625 0.21875 1 0.21875 0.90625 0 1.6133-0.34375 2.125-1.0312 0.51953-0.69531 0.78125-1.6641 0.78125-2.9062v-6.7031h4.3438v13.578h-4.3438v-1.9688c-0.65625 0.79297-1.3516 1.3828-2.0781 1.7656-0.73047 0.375-1.5391 0.5625-2.4219 0.5625-1.5625 0-2.7578-0.47656-3.5781-1.4375-0.82422-0.96875-1.2344-2.3672-1.2344-4.2031z"/>
  </symbol>
  <symbol id="f" overflow="visible">
   <path d="m15.734-8.2656v8.2656h-4.3594v-6.2969c0-1.1953-0.027344-2.0156-0.078125-2.4531-0.054687-0.44531-0.14844-0.77344-0.28125-0.98438-0.16797-0.28125-0.39844-0.5-0.6875-0.65625-0.29297-0.15625-0.625-0.23438-1-0.23438-0.89844 0-1.6055 0.35156-2.125 1.0469-0.52344 0.69922-0.78125 1.6641-0.78125 2.8906v6.6875h-4.3438v-18.859h4.3438v7.2656c0.65625-0.78906 1.3477-1.375 2.0781-1.75 0.73828-0.375 1.5547-0.5625 2.4531-0.5625 1.5625 0 2.75 0.48438 3.5625 1.4531 0.8125 0.96094 1.2188 2.3555 1.2188 4.1875z"/>
  </symbol>
  <symbol id="q" overflow="visible">
   <path d="m11.016-18.859v2.8438h-2.3906c-0.61719 0-1.0469 0.11719-1.2969 0.34375-0.24219 0.21875-0.35938 0.60156-0.35938 1.1406v0.95312h3.7188v3.1094h-3.7188v10.469h-4.3438v-10.469h-2.1562v-3.1094h2.1562v-0.95312c0-1.4688 0.41016-2.5547 1.2344-3.2656 0.83203-0.70703 2.1133-1.0625 3.8438-1.0625z"/>
  </symbol>
  <symbol id="d" overflow="visible">
   <path d="m8.5469-10.797c-0.96094 0-1.6953 0.34375-2.2031 1.0312-0.5 0.6875-0.75 1.6836-0.75 2.9844 0 1.3047 0.25 2.3047 0.75 3 0.50781 0.6875 1.2422 1.0312 2.2031 1.0312 0.94531 0 1.6719-0.34375 2.1719-1.0312 0.5-0.69531 0.75-1.6953 0.75-3 0-1.3008-0.25-2.2969-0.75-2.9844s-1.2266-1.0312-2.1719-1.0312zm0-3.1094c2.332 0 4.1562 0.63281 5.4688 1.8906 1.3125 1.2617 1.9688 3.0078 1.9688 5.2344 0 2.2305-0.65625 3.9805-1.9688 5.25-1.3125 1.2617-3.1367 1.8906-5.4688 1.8906-2.3438 0-4.1797-0.62891-5.5-1.8906-1.3242-1.2695-1.9844-3.0195-1.9844-5.25 0-2.2266 0.66016-3.9727 1.9844-5.2344 1.3203-1.2578 3.1562-1.8906 5.5-1.8906z"/>
  </symbol>
  <symbol id="p" overflow="visible">
   <path d="m14.672-11.328c0.55078-0.83203 1.2031-1.4688 1.9531-1.9062 0.75781-0.44531 1.5938-0.67188 2.5-0.67188 1.5508 0 2.7344 0.48438 3.5469 1.4531 0.82031 0.96094 1.2344 2.3555 1.2344 4.1875v8.2656h-4.3594v-7.0781-0.32812c0.007813-0.11328 0.015625-0.27344 0.015625-0.48438 0-0.95703-0.14062-1.6484-0.42188-2.0781-0.28125-0.4375-0.74219-0.65625-1.375-0.65625-0.82422 0-1.4609 0.33984-1.9062 1.0156-0.44922 0.67969-0.67969 1.6562-0.6875 2.9375v6.6719h-4.375v-7.0781c0-1.5-0.13281-2.4609-0.39062-2.8906-0.25-0.4375-0.71094-0.65625-1.375-0.65625-0.83594 0-1.4805 0.34375-1.9375 1.0312-0.44922 0.67969-0.67188 1.6484-0.67188 2.9062v6.6875h-4.3594v-13.578h4.3594v1.9844c0.53125-0.75781 1.1406-1.332 1.8281-1.7188 0.69531-0.39453 1.4609-0.59375 2.2969-0.59375 0.9375 0 1.7656 0.23047 2.4844 0.6875 0.71875 0.44922 1.2656 1.0781 1.6406 1.8906z"/>
  </symbol>
  <symbol id="o" overflow="visible">
   <path d="m15.734-8.2656v8.2656h-4.3594v-6.3281c0-1.1758-0.027344-1.9844-0.078125-2.4219-0.054687-0.44531-0.14844-0.77344-0.28125-0.98438-0.16797-0.28125-0.39844-0.5-0.6875-0.65625-0.29297-0.15625-0.625-0.23438-1-0.23438-0.89844 0-1.6055 0.35156-2.125 1.0469-0.52344 0.69922-0.78125 1.6641-0.78125 2.8906v6.6875h-4.3438v-13.578h4.3438v1.9844c0.65625-0.78906 1.3477-1.375 2.0781-1.75 0.73828-0.375 1.5547-0.5625 2.4531-0.5625 1.5625 0 2.75 0.48438 3.5625 1.4531 0.8125 0.96094 1.2188 2.3555 1.2188 4.1875z"/>
  </symbol>
  <symbol id="n" overflow="visible">
   <path d="m2.2812-18.094h7.75c2.3008 0 4.0664 0.51172 5.2969 1.5312 1.2266 1.0234 1.8438 2.4766 1.8438 4.3594 0 1.9062-0.61719 3.3711-1.8438 4.3906-1.2305 1.0234-2.9961 1.5312-5.2969 1.5312h-3.0781v6.2812h-4.6719zm4.6719 3.375v5.0625h2.5781c0.90625 0 1.6016-0.21875 2.0938-0.65625 0.48828-0.44531 0.73438-1.0781 0.73438-1.8906 0-0.80078-0.24609-1.4219-0.73438-1.8594-0.49219-0.4375-1.1875-0.65625-2.0938-0.65625z"/>
  </symbol>
  <symbol id="m" overflow="visible">
   <path d="m2.0781-13.578h4.3438v13.328c0 1.8203-0.4375 3.2109-1.3125 4.1719-0.86719 0.95703-2.125 1.4375-3.7812 1.4375h-2.1562v-2.8438h0.75c0.82031 0 1.3828-0.1875 1.6875-0.5625 0.3125-0.375 0.46875-1.1094 0.46875-2.2031zm0-5.2812h4.3438v3.5312h-4.3438z"/>
  </symbol>
 </defs>
 <g>
  <path d="m325.9 320.02h90.219c8.1953 0 10.129-4.7305 4.2969-10.562l-48.91-48.906c-5.8555-5.8555-15.285-5.832-21.117 0l-24.453 24.453-5.3633-5.3633c-5.8555-5.8516-15.277-5.8281-21.105 0l-29.824 29.824c-5.8516 5.8516-3.8711 10.555 4.3672 10.555zm-226.96 125.79c2.6641 2.5469 6.2734 4.1055 10.242 4.1055h466.74c4.3477 0 8.2539-1.8711 10.973-4.8516l-147-94.836c-1.1484-0.74219-1.4805-2.2773-0.73828-3.4297 0.74219-1.1523 2.2812-1.4844 3.4297-0.74219l146.99 94.832c0.77344-1.8047 1.2031-3.7969 1.2031-5.8867v-292.86c0-3.4258-1.1484-6.582-3.0781-9.0977l-145.11 93.621c-1.1484 0.74219-2.6875 0.41406-3.4297-0.73828-0.74219-1.1523-0.41016-2.6914 0.73828-3.4336l144.03-92.922c-2.3125-1.4844-5.0586-2.3477-8.0078-2.3477h-466.74c-2.3516 0-4.5781 0.55078-6.5508 1.5234l144.46 93.199c1.1523 0.74609 1.4844 2.2812 0.74219 3.4336-0.74609 1.1523-2.2812 1.4844-3.4336 0.73828l-146.03-94.211c-2.5078 2.6719-4.043 6.2734-4.043 10.234v292.86c0 2.457 0.58984 4.7773 1.6367 6.8203l148.43-95.766c1.1523-0.74219 2.6875-0.41016 3.4336 0.74219 0.74219 1.1523 0.41016 2.6875-0.74219 3.4297zm-24.473-303.67c0-19.188 15.516-34.773 34.715-34.773h466.74c19.191 0 34.715 15.574 34.715 34.773v292.86c0 19.188-15.516 34.773-34.715 34.773h-466.74c-19.191 0-34.715-15.574-34.715-34.773zm210.09 120.59c7.0352 0 12.734-5.6992 12.734-12.73s-5.6992-12.734-12.734-12.734c-7.0312 0-12.73 5.7031-12.73 12.734s5.6992 12.73 12.73 12.73z" fill-rule="evenodd"/>
  <use y="608.777344" xlink:href="#v"/>
  <use x="18.21875" y="608.777344" xlink:href="#c"/>
  <use x="30.457031" y="608.777344" xlink:href="#b"/>
  <use x="47.292969" y="608.777344" xlink:href="#l"/>
  <use x="64.042969" y="608.777344" xlink:href="#a"/>
  <use x="75.910156" y="608.777344" xlink:href="#b"/>
  <use x="92.746094" y="608.777344" xlink:href="#k"/>
  <use x="119.15625" y="608.777344" xlink:href="#j"/>
  <use x="136.925781" y="608.777344" xlink:href="#i"/>
  <use x="161.746094" y="608.777344" xlink:href="#e"/>
  <use x="182.523438" y="608.777344" xlink:href="#u"/>
  <use x="191.03125" y="608.777344" xlink:href="#h"/>
  <use x="205.746094" y="608.777344" xlink:href="#t"/>
  <use x="230.894531" y="608.777344" xlink:href="#s"/>
  <use x="249.816406" y="608.777344" xlink:href="#r"/>
  <use x="258.324219" y="608.777344" xlink:href="#g"/>
  <use x="275.996094" y="608.777344" xlink:href="#a"/>
  <use x="287.859375" y="608.777344" xlink:href="#f"/>
  <use y="633.597656" xlink:href="#q"/>
  <use x="10.800781" y="633.597656" xlink:href="#c"/>
  <use x="23.039062" y="633.597656" xlink:href="#d"/>
  <use x="40.09375" y="633.597656" xlink:href="#p"/>
  <use x="74.601562" y="633.597656" xlink:href="#a"/>
  <use x="86.46875" y="633.597656" xlink:href="#f"/>
  <use x="104.140625" y="633.597656" xlink:href="#b"/>
  <use x="129.617188" y="633.597656" xlink:href="#e"/>
  <use x="150.390625" y="633.597656" xlink:href="#d"/>
  <use x="167.445313" y="633.597656" xlink:href="#g"/>
  <use x="185.117188" y="633.597656" xlink:href="#o"/>
  <use x="211.429688" y="633.597656" xlink:href="#n"/>
  <use x="229.621094" y="633.597656" xlink:href="#c"/>
  <use x="241.863281" y="633.597656" xlink:href="#d"/>
  <use x="258.917969" y="633.597656" xlink:href="#m"/>
  <use x="267.425781" y="633.597656" xlink:href="#b"/>
  <use x="284.261719" y="633.597656" xlink:href="#h"/>
  <use x="298.976562" y="633.597656" xlink:href="#a"/>
 </g>
</svg>
