<svg width="309" height="232" viewBox="0 0 309 232" fill="none" xmlns="http://www.w3.org/2000/svg">
<path d="M137.86 76.42V264C123.914 264.11 109.989 262.905 96.2696 260.4C92.2696 259.65 89.0096 258.9 86.6596 258.3C83.9405 257.626 81.0663 258.405 79.0596 260.36C57.3096 281.36 29.0596 263.02 29.0596 263.02C3.7296 262.26 -6.88041 241.39 -6.88041 241.39C-32.2204 223.5 -26.5004 190.68 -26.5004 190.68C-42.8404 164.58 -19.1604 134.74 -19.1604 134.74C-19.1604 134.74 -23.2304 113.85 -14.2404 98.19C-14.2404 98.19 -15.0704 71.34 22.5096 59.41C22.5096 59.41 29.8696 40.75 58.5096 40.01C58.5096 40.01 93.6296 19.14 122.64 37.01C122.6 37 137.85 42.16 137.86 76.42Z" fill="#FF5986" stroke="#0D052C" stroke-width="1.5" stroke-linecap="round" stroke-linejoin="round"/>
<path d="M31.4291 187.73C31.4291 187.73 22.4291 215.33 65.7391 221.3C65.7391 221.3 77.1791 242.18 98.4191 233.97" stroke="#0D052C" stroke-width="1.5" stroke-linecap="round" stroke-linejoin="round"/>
<path d="M13.5896 123.13C13.5896 123.13 -15.5804 141.7 -3.41035 170.39C0.249648 179.07 10.7196 183.91 20.4296 181.11" stroke="#0D052C" stroke-width="1.5" stroke-linecap="round" stroke-linejoin="round"/>
<path d="M83.7891 127.24C83.7891 127.24 123.159 116.81 137.859 139.24" stroke="#0D052C" stroke-width="1.5" stroke-linecap="round" stroke-linejoin="round"/>
<path d="M88.5098 85.05C88.5098 85.05 114.65 77.59 130.99 94.75" stroke="#0D052C" stroke-width="1.5" stroke-linecap="round" stroke-linejoin="round"/>
<path d="M102.399 64.91C102.399 64.91 111.399 65.37 113.839 84.91" stroke="#0D052C" stroke-width="1.5" stroke-linecap="round" stroke-linejoin="round"/>
<path d="M130.869 231.59C130.869 231.59 128.349 241.59 118.209 241.59" stroke="#0D052C" stroke-width="1.5" stroke-linecap="round" stroke-linejoin="round"/>
<path d="M36.6895 138C36.6895 138 40.4795 178.93 65.3895 187.45C75.8658 191.092 87.4011 190.065 97.0695 184.63C97.0695 184.63 99.3395 215.42 129.749 206.26" stroke="#0D052C" stroke-width="1.5" stroke-linecap="round" stroke-linejoin="round"/>
<path d="M84.7295 45.3C84.7295 45.3 95.1095 37.78 105.639 45.3" stroke="#0D052C" stroke-width="1.5" stroke-linecap="round" stroke-linejoin="round"/>
<path d="M75.7393 143.09C75.7393 143.09 78.2693 165.28 99.7393 161.51" stroke="#0D052C" stroke-width="1.5" stroke-linecap="round" stroke-linejoin="round"/>
<path d="M-5.00052 211.81C-5.00052 211.81 -7.64052 224.72 10.4095 225.1" stroke="#0D052C" stroke-width="1.5" stroke-linecap="round" stroke-linejoin="round"/>
<path d="M10.6094 83.91C10.6094 83.91 33.4894 71.23 39.9994 95.09C43.2694 107.03 42.6594 115.98 41.9994 123.09" stroke="#0D052C" stroke-width="1.5" stroke-linecap="round" stroke-linejoin="round"/>
<path d="M48.3294 76.31C48.3294 76.31 49.2094 86.13 41.1094 99.62" stroke="#0D052C" stroke-width="1.5" stroke-linecap="round" stroke-linejoin="round"/>
<path d="M302.289 190.65C302.289 190.65 308.019 223.46 282.699 241.36C282.699 241.36 272.079 262.24 246.749 262.98C246.749 262.98 219.439 280.98 197.809 260.98C195.246 258.62 191.692 257.661 188.289 258.41C171.724 262.049 154.82 263.926 137.859 264.01V76.42C137.859 42.12 153.199 37 153.199 37C182.199 19.1 217.339 40 217.339 40C245.929 40.74 253.279 59.4 253.279 59.4C287.709 70.3 289.909 93.76 289.999 97.61C290.011 97.9889 290.114 98.3593 290.299 98.69C298.899 114.29 294.909 134.69 294.909 134.69C294.909 134.69 318.639 164.53 302.289 190.65Z" fill="#FF5986" stroke="#0D052C" stroke-width="1.5" stroke-linecap="round" stroke-linejoin="round"/>
<g opacity="0.3">
<path d="M302.289 190.65C302.289 190.65 308.019 223.46 282.699 241.36C282.699 241.36 272.079 262.24 246.749 262.98C246.749 262.98 219.439 280.98 197.809 260.98C195.246 258.62 191.692 257.661 188.289 258.41C171.724 262.049 154.82 263.926 137.859 264.01V76.42C137.859 42.12 153.199 37 153.199 37C182.199 19.1 217.339 40 217.339 40C245.929 40.74 253.279 59.4 253.279 59.4C287.709 70.3 289.909 93.76 289.999 97.61C290.011 97.9889 290.114 98.3593 290.299 98.69C298.899 114.29 294.909 134.69 294.909 134.69C294.909 134.69 318.639 164.53 302.289 190.65Z" fill="white" stroke="#0D052C" stroke-width="1.5" stroke-linecap="round" stroke-linejoin="round"/>
</g>
<path d="M145.279 231.12C145.279 231.12 147.339 241.12 157.509 241.12" stroke="#0D052C" stroke-width="1.5" stroke-linecap="round" stroke-linejoin="round"/>
<path d="M244.3 188.2C244.3 188.2 253.3 215.8 209.98 221.77C209.98 221.77 198.55 242.65 177.3 234.45" stroke="#0D052C" stroke-width="1.5" stroke-linecap="round" stroke-linejoin="round"/>
<path d="M262.2 123.13C262.2 123.13 291.36 141.7 279.2 170.39C275.53 179.07 265.06 183.91 255.35 181.11" stroke="#0D052C" stroke-width="1.5" stroke-linecap="round" stroke-linejoin="round"/>
<path d="M194.819 127.24C194.819 127.24 152.569 116.81 137.819 139.24" stroke="#0D052C" stroke-width="1.5" stroke-linecap="round" stroke-linejoin="round"/>
<path d="M187.29 85.05C187.29 85.05 161.14 77.59 144.8 94.75" stroke="#0D052C" stroke-width="1.5" stroke-linecap="round" stroke-linejoin="round"/>
<path d="M176.929 64.91C176.929 64.91 167.929 63.91 165.499 83.44" stroke="#0D052C" stroke-width="1.5" stroke-linecap="round" stroke-linejoin="round"/>
<path d="M239.099 138C239.099 138 235.309 178.93 210.409 187.45C199.929 191.092 188.391 190.066 178.719 184.63C178.719 184.63 176.459 215.46 145.999 206.3" stroke="#0D052C" stroke-width="1.5" stroke-linecap="round" stroke-linejoin="round"/>
<path d="M191 45.3C191 45.3 180.63 37.78 170.1 45.3" stroke="#0D052C" stroke-width="1.5" stroke-linecap="round" stroke-linejoin="round"/>
<path d="M199.999 143.09C199.999 143.09 197.479 165.28 175.999 161.51" stroke="#0D052C" stroke-width="1.5" stroke-linecap="round" stroke-linejoin="round"/>
<path d="M280.759 211.81C280.759 211.81 283.389 224.72 265.339 225.1" stroke="#0D052C" stroke-width="1.5" stroke-linecap="round" stroke-linejoin="round"/>
<path d="M265.11 83.83C265.11 83.83 242.23 71.16 235.7 95C232.43 106.94 233.04 115.89 233.7 123" stroke="#0D052C" stroke-width="1.5" stroke-linecap="round" stroke-linejoin="round"/>
<path d="M227.389 76.24C227.389 76.24 226.509 86.06 234.609 99.54" stroke="#0D052C" stroke-width="1.5" stroke-linecap="round" stroke-linejoin="round"/>
</svg>
