<svg width="212" height="324" viewBox="0 0 212 324" fill="none" xmlns="http://www.w3.org/2000/svg">
<path d="M289.64 80.08L240.99 108.38L240.92 108.42L240.79 108.5V108.35L196.13 81.85L244.23 54.36L289.64 80.08V80.08Z" fill="#FFE483" stroke="#0D052C" stroke-width="1.5" stroke-linecap="round" stroke-linejoin="round"/>
<path d="M244.23 54.36L196.13 81.85L150.76 54.93L197.8 28.05L244.23 54.36V54.36Z" fill="#FFE483" stroke="#0D052C" stroke-width="1.5" stroke-linecap="round" stroke-linejoin="round"/>
<path d="M104.78 81.2L57.84 108.03L10.75 80.08L57.69 53.26L104.78 81.2V81.2Z" fill="#FFE483" stroke="#0D052C" stroke-width="1.5" stroke-linecap="round" stroke-linejoin="round"/>
<path d="M150.76 54.93L104.78 81.2L57.6904 53.26L103.67 26.98L150.76 54.93V54.93Z" fill="#FFE483" stroke="#0D052C" stroke-width="1.5" stroke-linecap="round" stroke-linejoin="round"/>
<path d="M197.8 28.05L150.8 54.93L103.67 27L149.58 0.75V0.75L197.8 28.05Z" fill="#FFE483" stroke="#0D052C" stroke-width="1.5" stroke-linecap="round" stroke-linejoin="round"/>
<path d="M196.13 81.85L150.14 108.12L104.78 81.2L150.76 54.93L196.13 81.85V81.85Z" fill="#FFE483" stroke="#0D052C" stroke-width="1.5" stroke-linecap="round" stroke-linejoin="round"/>
<path d="M240.79 108.35V108.5L195.34 134.94L150.14 108.12L196.13 81.85L240.79 108.35V108.35Z" fill="#FFE483" stroke="#0D052C" stroke-width="1.5" stroke-linecap="round" stroke-linejoin="round"/>
<path d="M148.81 270.11V322.47L103.21 295.59V243.21L148.81 270.11V270.11Z" fill="#FF5986" stroke="#0D052C" stroke-width="1.5" stroke-linecap="round" stroke-linejoin="round"/>
<path d="M103.21 243.21V295.59L57.6104 268.7V216.3L103.21 243.21V243.21Z" fill="#FF5986" stroke="#0D052C" stroke-width="1.5" stroke-linecap="round" stroke-linejoin="round"/>
<path d="M57.61 216.3V268.7L10.75 241.07V188.64L57.61 216.3V216.3Z" fill="#FF5986" stroke="#0D052C" stroke-width="1.5" stroke-linecap="round" stroke-linejoin="round"/>
<path d="M57.61 162.78V216.3L10.75 188.64V135.73L57.61 162.78V162.78Z" fill="#FF5986" stroke="#0D052C" stroke-width="1.5" stroke-linecap="round" stroke-linejoin="round"/>
<path d="M148.81 215.4V270.11L103.21 243.21V189.08L148.81 215.4V215.4Z" fill="#FF5986" stroke="#0D052C" stroke-width="1.5" stroke-linecap="round" stroke-linejoin="round"/>
<path d="M57.84 108.03L57.61 108.15V162.78L10.75 135.73V80.08L57.84 108.03V108.03Z" fill="#FF5986" stroke="#0D052C" stroke-width="1.5" stroke-linecap="round" stroke-linejoin="round"/>
<path d="M195.34 243.2V295.58L148.81 322.47V270.11L195.34 243.2V243.2Z" fill="#87D4FF" stroke="#0D052C" stroke-width="1.5" stroke-linecap="round" stroke-linejoin="round"/>
<path d="M240.79 216.91V269.31L195.67 295.38L195.34 295.58V243.2L195.67 243L240.79 216.91V216.91Z" fill="#87D4FF" stroke="#0D052C" stroke-width="1.5" stroke-linecap="round" stroke-linejoin="round"/>
<path d="M103.21 134.94V189.08L57.6104 162.78V108.15L57.8404 108.03L103.2 134.94H103.21V134.94Z" fill="#FF5986" stroke="#0D052C" stroke-width="1.5" stroke-linecap="round" stroke-linejoin="round"/>
<path d="M150.14 108.12L103.21 134.93V134.94H103.2L57.8398 108.03L104.78 81.2L150.14 108.12V108.12Z" fill="#FFE483" stroke="#0D052C" stroke-width="1.5" stroke-linecap="round" stroke-linejoin="round"/>
<path d="M195.34 134.94L148.81 162L103.21 134.94V134.93L150.14 108.12L195.34 134.94V134.94Z" fill="#FFE483" stroke="#0D052C" stroke-width="1.5" stroke-linecap="round" stroke-linejoin="round"/>
<path d="M103.21 134.93V134.91" stroke="#0D052C" stroke-width="1.5" stroke-linecap="round" stroke-linejoin="round"/>
<path d="M195.34 134.94V134.92" stroke="#0D052C" stroke-width="1.5" stroke-linecap="round" stroke-linejoin="round"/>
<path d="M148.81 162V215.4L103.21 189.08V134.94L148.81 162V162Z" fill="#FF5986" stroke="#0D052C" stroke-width="1.5" stroke-linecap="round" stroke-linejoin="round"/>
<path d="M240.79 108.5V163.37L195.67 188.89L195.34 189.07V134.94L240.79 108.5V108.5Z" fill="#87D4FF" stroke="#0D052C" stroke-width="1.5" stroke-linecap="round" stroke-linejoin="round"/>
<path d="M103.21 189.08V243.21L57.6104 216.3V162.78L103.21 189.08V189.08Z" fill="#FF5986" stroke="#0D052C" stroke-width="1.5" stroke-linecap="round" stroke-linejoin="round"/>
<path d="M195.34 134.94V189.07L148.81 215.4V162L195.34 134.94V134.94Z" fill="#87D4FF" stroke="#0D052C" stroke-width="1.5" stroke-linecap="round" stroke-linejoin="round"/>
<path d="M240.79 163.37V216.91L195.67 243L195.34 243.2V189.07L195.67 188.89L240.79 163.37V163.37Z" fill="#87D4FF" stroke="#0D052C" stroke-width="1.5" stroke-linecap="round" stroke-linejoin="round"/>
<path d="M195.34 189.07V243.2L148.81 270.11V215.4L195.34 189.07V189.07Z" fill="#87D4FF" stroke="#0D052C" stroke-width="1.5" stroke-linecap="round" stroke-linejoin="round"/>
<path d="M212.6 192.67L226.32 210.38" stroke="#0D052C" stroke-width="1.5" stroke-linecap="round" stroke-linejoin="round"/>
<path d="M209.8 200.66L217.13 210.12" stroke="#0D052C" stroke-width="1.5" stroke-linecap="round" stroke-linejoin="round"/>
</svg>
