<svg width="315" height="444" viewBox="0 0 315 444" fill="none" xmlns="http://www.w3.org/2000/svg">
<path d="M269.23 338.06C261.53 334 252.53 331.16 243.78 329.16C218.748 323.429 192.696 323.885 167.88 330.49C159.079 332.711 150.589 336.023 142.61 340.35C139.21 335.733 137.406 330.134 137.47 324.4C137.449 321.322 138.268 318.297 139.84 315.65C141.24 313.48 143.28 311.79 144.84 309.77C146.4 307.75 147.66 305.09 146.92 302.6C146.07 299.69 142.99 298.15 140.81 296.04C137.732 292.83 136.238 288.42 136.73 284C137.276 279.598 139.189 275.478 142.2 272.22C144.072 270.216 146.109 268.373 148.29 266.71C154 262.1 160 254.81 160.77 245.23C161.86 231.85 172.93 230.68 179.23 230.93C184.009 231.124 188.776 230.324 193.23 228.58C194.05 228.26 194.93 228.05 195.72 227.66C208.64 221.32 221 226 228.48 235.29C229.101 236.218 229.899 237.013 230.83 237.63C232.044 238.146 233.368 238.345 234.68 238.21C244.82 238.21 255.13 242.11 261.92 249.64C268.71 257.17 271.5 268.42 268.05 278C265.36 285.4 259.14 292.05 260.05 299.87C260.66 305.23 263.41 310.15 266.25 314.74C270.531 321.73 271.616 330.218 269.23 338.06Z" fill="#FFFEAA" stroke="#0D052C" stroke-width="1.5" stroke-linecap="round" stroke-linejoin="round"/>
<path d="M171.22 247.52C174.17 246.24 177.51 248.3 180.72 248.1C182.792 247.82 184.756 247.007 186.42 245.74C188.074 244.48 189.903 243.47 191.85 242.74C193.851 242.015 196.089 242.445 197.68 243.86" stroke="#0D052C" stroke-width="1.5" stroke-linecap="round" stroke-linejoin="round"/>
<path d="M162.149 266.57C161.144 269.541 159.609 272.306 157.619 274.73C156.239 276.33 154.619 277.73 153.219 279.29C151.753 280.835 150.912 282.87 150.859 285C150.949 287.25 152.359 289.24 153.969 290.82C155.683 292.287 157.303 293.86 158.819 295.53C161.697 299.327 162.114 304.447 159.889 308.66C158.279 311.66 155.499 313.75 153.499 316.46C151.499 319.17 150.849 325.15 153.939 329.21" stroke="#0D052C" stroke-width="1.5" stroke-linecap="round" stroke-linejoin="round"/>
<path d="M234.29 295.52C234.81 304.52 232 307.52 230.29 309.73C229.29 311.02 228.15 312.34 227.99 313.96C227.944 315.43 228.463 316.861 229.44 317.96C230.481 319.035 231.412 320.211 232.22 321.47C232.761 322.344 232.921 323.4 232.664 324.395C232.407 325.39 231.756 326.237 230.86 326.74" stroke="#0D052C" stroke-width="1.5" stroke-linecap="round" stroke-linejoin="round"/>
<path d="M230.83 237.63C231.233 243.893 229.421 250.099 225.71 255.16" stroke="#0D052C" stroke-width="1.5" stroke-linecap="round" stroke-linejoin="round"/>
<path d="M248.51 267.63C246.4 270.11 243.988 272.318 241.33 274.2" stroke="#0D052C" stroke-width="1.5" stroke-linecap="round" stroke-linejoin="round"/>
<path d="M206.54 232.19C206.54 232.19 216.45 230.43 221.08 237.63" stroke="#0D052C" stroke-width="1.5" stroke-linecap="round" stroke-linejoin="round"/>
<path d="M172.639 313.49C172.17 314.713 172.342 316.09 173.099 317.16C173.769 318.27 174.709 319.16 175.399 320.27C176.187 321.317 176.425 322.678 176.039 323.93C175.503 324.85 174.805 325.667 173.979 326.34C173.249 327.12 172.719 328.34 173.299 329.23" stroke="#0D052C" stroke-width="1.5" stroke-linecap="round" stroke-linejoin="round"/>
<path d="M230.899 256.94C230.899 256.94 236.749 257.66 237.279 262.29C237.809 266.92 236.749 268.29 238.179 270.29" stroke="#0D052C" stroke-width="1.5" stroke-linecap="round" stroke-linejoin="round"/>
<path d="M253.94 259C256.85 264.09 258.39 270.72 254.35 278C252.63 281.09 249.98 283.59 248.35 286.71C247.467 288.439 246.873 290.3 246.59 292.22C246.115 294.643 246.256 297.146 247 299.5C247.9 301.98 249.68 304.01 251.07 306.25C254 311 255 317.26 252.11 322" stroke="#0D052C" stroke-width="1.5" stroke-linecap="round" stroke-linejoin="round"/>
<path d="M244.92 248.93C247.31 250.729 249.464 252.822 251.33 255.16" stroke="#0D052C" stroke-width="1.5" stroke-linecap="round" stroke-linejoin="round"/>
<path fill-rule="evenodd" clip-rule="evenodd" d="M216.61 309.54V326.77C216.599 327.877 215.98 328.887 215 329.4C212.62 330.68 208.19 331.53 203.12 331.53C195.51 331.53 189.34 329.6 189.34 327.21V309.35C197.946 313.496 207.957 313.566 216.62 309.54H216.61Z" fill="#FFBEA4" stroke="#0D052C" stroke-width="1.5"/>
<path fill-rule="evenodd" clip-rule="evenodd" d="M78.5195 445.68C79.5181 446.765 80.635 447.734 81.8495 448.57C86.0595 451.38 92.3595 453.13 101.23 446.43C110.29 439.57 120.85 422.09 132.99 406.43V406.43C122.494 400.563 113.142 392.853 105.38 383.67C105.02 383.23 104.66 382.79 104.33 382.37C96.7195 394.29 91.7795 402.45 91.7795 402.45L66.7795 350.52C66.3878 349.695 66.1829 348.793 66.1795 347.88C66.1795 344.78 65.3595 336.58 57.5695 328.45C56.9995 327.84 56.3795 327.28 55.7695 326.71C54.2795 325.34 51.1595 322.34 50.5695 320.82C49.8095 318.82 47.3095 310.52 43.7295 310.82C37.0795 311.37 40.0895 325.62 45.4295 330.62C44.3695 329.73 30.3295 318.52 21.9895 313.34C21.9895 313.34 13.3395 307.74 11.2595 311.9C10.0795 314.29 14.7095 317.66 16.4595 319.11C14.3095 317.64 7.62952 312.11 5.19952 315.46C2.91952 318.59 11.1395 323.71 13.4295 325.83C12.0895 324.83 6.04952 319.55 3.50952 322.14C0.509521 325.23 5.58952 328.31 8.37952 330.43C7.02952 329.43 3.87952 326.71 2.37952 328.2C0.459521 330.07 3.37952 333.2 4.76952 334.61C7.59689 337.106 10.6051 339.389 13.7695 341.44C16.4795 343.44 18.4695 345.92 20.8695 348.25C25.8195 353.07 30.7395 360.92 38.3195 361.61C38.3195 361.61 55.4495 406.39 70.2395 433.81C71.671 436.48 73.2988 439.041 75.1095 441.47C76.4395 443.18 77.8595 445 78.5195 445.68Z" fill="#FFBEA4" stroke="#0D052C" stroke-width="1.5"/>
<path d="M45.4694 330.6L47.4694 332.69C47.722 332.917 47.7568 333.301 47.5494 333.57C46.1794 335.03 41.4394 339.75 45.7494 347.02" stroke="#0D052C" stroke-width="1.5" stroke-linecap="round" stroke-linejoin="round"/>
<path d="M38.3594 361.59C40.9352 361.801 43.5208 361.321 45.8494 360.2" stroke="#0D052C" stroke-width="1.5" stroke-linecap="round" stroke-linejoin="round"/>
<path d="M16.5098 319.1C16.5098 319.1 26.3298 325.87 30.7798 329.21" stroke="#0D052C" stroke-width="1.5" stroke-linecap="round" stroke-linejoin="round"/>
<path d="M8.83984 330.73C8.83984 330.73 20.8398 338.44 22.1598 339.51" stroke="#0D052C" stroke-width="1.5" stroke-linecap="round" stroke-linejoin="round"/>
<path d="M13.4697 325.82C13.4697 325.82 24.1997 333.14 26.8897 335.27" stroke="#0D052C" stroke-width="1.5" stroke-linecap="round" stroke-linejoin="round"/>
<path d="M91.7793 402.43C93.9532 406.258 95.9324 410.193 97.7093 414.22" stroke="#0D052C" stroke-width="1.5" stroke-linecap="round" stroke-linejoin="round"/>
<path d="M91.5996 443.09C91.9058 443.739 91.8409 444.502 91.4296 445.09C90.6496 446.09 88.7896 445.89 87.2796 444.68C86.6343 444.188 86.1278 443.537 85.8096 442.79" stroke="#0D052C" stroke-width="1.5" stroke-linecap="round" stroke-linejoin="round"/>
<path d="M11 336.4C10.9854 335.959 11.2218 335.549 11.61 335.34" stroke="#0D052C" stroke-width="1.5" stroke-linecap="round" stroke-linejoin="round"/>
<path d="M13.8092 330.89C13.8092 330.89 13.6392 329.78 15.0392 329.37" stroke="#0D052C" stroke-width="1.5" stroke-linecap="round" stroke-linejoin="round"/>
<path d="M19.6096 326.61C19.6096 326.61 19.3096 325.74 20.4496 325.21" stroke="#0D052C" stroke-width="1.5" stroke-linecap="round" stroke-linejoin="round"/>
<path d="M24.5595 321.71C24.5084 321.369 24.6027 321.022 24.8194 320.754C25.0362 320.486 25.3554 320.321 25.6995 320.3" stroke="#0D052C" stroke-width="1.5" stroke-linecap="round" stroke-linejoin="round"/>
<path fill-rule="evenodd" clip-rule="evenodd" d="M336.299 446C351.619 422.23 374.059 362.82 374.059 362.82C383.699 362.37 387.989 354.14 392.899 349.37C395.268 347.213 397.799 345.24 400.469 343.47C403.769 341.14 407.889 338.12 411.729 335.83C418.149 332.02 414.879 329.13 414.879 329.13C413.639 327.66 410.879 329.02 410.679 329.13C413.219 327.05 416.269 324.89 414.959 322.56C412.769 318.56 407.769 323.33 407.319 323.5H407.379C407.416 323.458 407.46 323.424 407.509 323.4C409.229 322.21 412.119 319.58 409.639 317.19C407.739 315.37 403.569 317.47 403.569 317.47C398.469 319.67 391.489 325.66 389.789 326.84C393.909 323.84 394.789 319.71 392.439 317.49C390.439 315.65 383.099 312.98 378.439 311.4C377.44 311.04 376.352 311.001 375.329 311.29C373.809 311.76 371.839 313 374.229 316.18C377.079 319.95 383.859 321.7 383.859 321.7C376.859 326.53 369.259 331.34 368.529 331.95C373.829 326.95 375.929 311.16 369.589 312.25C366.069 312.86 364.189 320.25 363.419 322.25C362.859 323.76 359.749 326.73 358.269 328.11C357.659 328.65 357.069 329.22 356.499 329.81C349.149 337.46 348.049 345.18 347.949 348.58C347.927 349.842 347.612 351.081 347.029 352.2L322.269 399C322.269 399 315.429 389.33 306.859 376.85C306.519 377.29 306.139 377.74 305.749 378.2C300.079 385.07 290.029 395.62 277.229 402.29C288.109 416.9 301.409 435.29 311.569 444.69C318.139 450.77 322.489 451.69 328.799 450.41C331.619 449.79 334.569 448.67 336.299 446Z" fill="#FFBEA4" stroke="#0D052C" stroke-width="1.5"/>
<path fill-rule="evenodd" clip-rule="evenodd" d="M253.8 441.2L250.69 469L249.43 469.39C249.43 469.39 232 473 205.92 473.19C181.98 473.36 165.18 469.98 162.53 469.42L159.18 444.57C179.66 447.27 221.88 451 253.8 441.2Z" fill="#FFBEA4" stroke="#0D052C" stroke-width="1.5"/>
<path fill-rule="evenodd" clip-rule="evenodd" d="M235 277.76V277.76V277.76C237.283 276.955 239.405 275.753 241.27 274.21C243.44 276.026 244.509 278.841 244.09 281.64C243.478 286.257 239.517 289.69 234.86 289.64C234.468 289.632 234.077 289.599 233.69 289.54C233.696 289.597 233.696 289.653 233.69 289.71C231.074 298.449 224.853 305.656 216.59 309.52C206.726 314.123 195.194 313.366 186.016 307.514C176.838 301.661 171.288 291.525 171.3 280.64V260.72C171.311 259.389 171.95 258.142 173.023 257.355C174.096 256.567 175.477 256.332 176.75 256.72C180.39 257.87 185.24 258.5 189.3 255.92C197.73 250.58 206.52 250.58 210.91 254.32C216.37 258.98 217.81 265.01 224.27 265.01C236.22 265 235 277.76 235 277.76Z" fill="#FFBEA4" stroke="#0D052C" stroke-width="1.5"/>
<path d="M237.58 276.67C238.604 277.428 239.27 278.575 239.42 279.84C239.537 280.994 239.115 282.137 238.277 282.939C237.439 283.74 236.277 284.109 235.13 283.94" stroke="#0D052C" stroke-width="1.5" stroke-linecap="round" stroke-linejoin="round"/>
<path fill-rule="evenodd" clip-rule="evenodd" d="M234.279 287.19C234.068 288.336 233.787 289.468 233.439 290.58Z" fill="#FFBEA4"/>
<path d="M234.279 287.19C234.068 288.336 233.787 289.468 233.439 290.58" stroke="#0D052C" stroke-width="1.5"/>
<path d="M177.78 270.47C177.78 270.47 182.4 267.2 187.53 268.54" stroke="#0D052C" stroke-width="1.5" stroke-linecap="round" stroke-linejoin="round"/>
<path d="M213.471 271.08C210.94 268.316 207.137 267.095 203.471 267.87" stroke="#0D052C" stroke-width="1.5" stroke-linecap="round" stroke-linejoin="round"/>
<path d="M193.62 283.42C193.316 283.421 193.012 283.401 192.71 283.36C191.52 283.2 190.24 282.48 190.71 281.36C191.36 279.9 192.79 277.26 193.03 275.82" stroke="#0D052C" stroke-width="1.5" stroke-linecap="round" stroke-linejoin="round"/>
<path d="M202.82 287.87C202.583 288.335 202.309 288.779 202 289.2C201.831 289.45 201.644 289.688 201.44 289.91C199.848 291.727 197.524 292.733 195.11 292.65C192.869 292.739 190.668 292.03 188.9 290.65C188.63 290.42 188.38 290.18 188.15 289.95C187.63 289.403 187.174 288.799 186.79 288.15" stroke="#0D052C" stroke-width="1.5" stroke-linecap="round" stroke-linejoin="round"/>
<path d="M210.39 282.55L212.71 284.9" stroke="#0D052C" stroke-width="1.5" stroke-linecap="round" stroke-linejoin="round"/>
<path d="M213.47 281.38L215.78 283.73" stroke="#0D052C" stroke-width="1.5" stroke-linecap="round" stroke-linejoin="round"/>
<path d="M180.05 277.07C180.05 277.07 180.7 275.23 183.54 275.07C185.156 274.961 186.745 275.526 187.93 276.63" stroke="#0D052C" stroke-width="1.5" stroke-linecap="round" stroke-linejoin="round"/>
<path d="M203.66 277.07C203.66 277.07 204.18 275.23 207.02 275.07C208.846 275.086 210.596 275.802 211.91 277.07" stroke="#0D052C" stroke-width="1.5" stroke-linecap="round" stroke-linejoin="round"/>
<path d="M180.47 282.27L178.16 284.62" stroke="#0D052C" stroke-width="1.5" stroke-linecap="round" stroke-linejoin="round"/>
<path d="M177.4 281.1L175.09 283.45" stroke="#0D052C" stroke-width="1.5" stroke-linecap="round" stroke-linejoin="round"/>
<path d="M301.499 369.25C294.739 382.45 278.399 392.54 272.569 395.84C269.759 391.84 267.169 388.06 264.909 384.51C264.909 384.51 262.349 408.41 259.479 431.07C230.819 445.25 152.909 435.9 152.909 435.9C149.789 412.9 146.839 386.9 146.839 386.9C144.279 390.9 141.409 395.01 138.339 399.23C123.339 394.99 108.669 375.74 108.669 375.74C117.149 363.26 128.059 349.66 139.099 342.49C140.239 341.75 141.409 341.04 142.609 340.35C150.588 336.023 159.078 332.711 167.879 330.49C174.923 328.61 182.091 327.227 189.329 326.35V327.21C189.329 329.6 195.499 331.53 203.109 331.53C208.179 331.53 212.609 330.68 214.989 329.4C215.973 328.89 216.596 327.879 216.609 326.77V325.38C225.758 325.85 234.849 327.115 243.779 329.16C252.529 331.16 261.529 334 269.229 338.06C270.029 338.48 270.819 338.91 271.589 339.36C282.209 345.53 292.859 357.6 301.499 369.25Z" fill="#FF81AF" stroke="#0D052C" stroke-width="1.5" stroke-linecap="round" stroke-linejoin="round"/>
<path d="M306.859 376.81C306.519 377.25 306.139 377.7 305.749 378.16C300.079 385.03 290.029 395.58 277.229 402.25C275.649 400.12 274.109 398 272.629 395.92L272.569 395.84C278.399 392.54 294.739 382.45 301.499 369.25C303.389 371.82 305.189 374.35 306.859 376.81Z" fill="#1D1E5F" stroke="#0D052C" stroke-width="1.5" stroke-linecap="round" stroke-linejoin="round"/>
<path d="M138.339 399.23C136.613 401.61 134.826 404.003 132.979 406.41C122.484 400.543 113.131 392.833 105.369 383.65C105.009 383.21 104.649 382.77 104.319 382.35C105.679 380.22 107.129 378 108.669 375.74C108.669 375.74 123.359 395 138.339 399.23Z" fill="#1D1E5F" stroke="#0D052C" stroke-width="1.5" stroke-linecap="round" stroke-linejoin="round"/>
<path d="M259.479 431.07C259.199 433.29 258.909 435.51 258.629 437.7C258.472 438.922 257.635 439.949 256.469 440.35C255.589 440.64 254.699 440.93 253.799 441.2C221.879 450.96 179.659 447.27 159.179 444.57C158.179 444.45 157.289 444.32 156.419 444.2C154.987 444.002 153.862 442.873 153.669 441.44C153.419 439.62 153.159 437.77 152.909 435.9C152.909 435.9 230.819 445.25 259.479 431.07Z" fill="#1D1E5F" stroke="#0D052C" stroke-width="1.5" stroke-linecap="round" stroke-linejoin="round"/>
<path d="M201.399 338.9C203.319 338.9 205.443 338.817 207.769 338.65" stroke="#0D052C" stroke-width="1.5" stroke-linecap="round" stroke-linejoin="round"/>
<path d="M181.999 330.1C181.999 330.1 182.079 337.37 196.809 338.69" stroke="#0D052C" stroke-width="1.5" stroke-linecap="round" stroke-linejoin="round"/>
<path d="M132.999 357.05C136.228 353.042 140.159 349.653 144.599 347.05" stroke="white" stroke-width="0.8" stroke-linecap="round" stroke-linejoin="round"/>
<path d="M230.439 368.6L237.969 378.32" stroke="#0D052C" stroke-width="1.5" stroke-linecap="round" stroke-linejoin="round"/>
<path d="M235.64 368.94L237.5 371.34" stroke="#0D052C" stroke-width="1.5" stroke-linecap="round" stroke-linejoin="round"/>
<path d="M228.909 372.99L232.929 378.18" stroke="#0D052C" stroke-width="1.5" stroke-linecap="round" stroke-linejoin="round"/>
<path d="M216.379 408.06C222.196 409.218 228.142 409.591 234.059 409.17" stroke="#0D052C" stroke-width="1.5" stroke-linecap="round" stroke-linejoin="round"/>
<path d="M168.739 407.52C168.739 407.52 184.879 411.65 201.909 406.82C202.437 406.672 202.981 406.588 203.529 406.57C204.279 406.551 205.028 406.598 205.769 406.71C206.769 406.86 208.479 407.1 210.359 407.35" stroke="#0D052C" stroke-width="1.5" stroke-linecap="round" stroke-linejoin="round"/>
<path d="M146.839 386.9C144.465 376.796 145.889 366.172 150.839 357.05" stroke="#0D052C" stroke-width="1.5" stroke-linecap="round" stroke-linejoin="round"/>
<path d="M264.91 384.51C264.91 384.51 266.4 365.06 256.8 357.05" stroke="#0D052C" stroke-width="1.5" stroke-linecap="round" stroke-linejoin="round"/>
</svg>
