<svg width="551" height="279" viewBox="0 0 551 279" fill="none" xmlns="http://www.w3.org/2000/svg">
<path d="M204.305 242L-55.5273 242C-57.1567 242 -58.7191 241.677 -59.8694 241.103C-61.0196 240.529 -61.6632 239.751 -61.6578 238.94L-61.6578 12.12C-61.6578 10.2588 -58.6251 8.74997 -54.8841 8.74997L468.862 8.75C470.587 8.75264 472.239 9.09686 473.454 9.70664C474.668 10.3164 475.344 11.1416 475.334 12L475.334 43.07C475.334 44.8516 472.443 46.299 468.862 46.31L382.21 46.31L382.21 82.51C382.216 83.3966 381.51 84.2477 380.25 84.8747C378.99 85.5016 377.279 85.8527 375.497 85.85L323.76 85.85L323.76 125.39L542.669 125.39C546.469 125.396 549.543 126.93 549.543 128.82L549.543 161.51C549.543 163.4 546.469 164.935 542.669 164.94L426.089 164.94L426.089 200.34C426.078 201.529 424.137 202.49 421.747 202.49L210.496 202.49L210.496 239C210.42 240.672 207.667 242.006 204.305 242Z" fill="#1D1E5F" stroke="#0D052C" stroke-width="1.5" stroke-linecap="round" stroke-linejoin="round"/>
<path d="M-65.0754 16.53L458.449 16.53C462.101 16.53 465.062 18.003 465.062 19.82L465.062 50.82C465.062 52.6371 462.101 54.11 458.449 54.11L-71.9697 54.11L-71.9697 19.94C-71.9697 18.0457 -68.883 16.51 -65.0754 16.51L-65.0754 16.53Z" fill="#9E59FF" stroke="#0D052C" stroke-width="1.5" stroke-linecap="round" stroke-linejoin="round"/>
<path d="M-71.9697 54.09L371.858 54.09L371.858 90.24C371.858 91.1417 371.138 92.0065 369.857 92.6442C368.575 93.2818 366.837 93.64 365.024 93.64L-71.9697 93.64L-71.9697 54.09Z" fill="#87D4FF" stroke="#0D052C" stroke-width="1.5" stroke-linecap="round" stroke-linejoin="round"/>
<rect x="-71.9697" y="93.63" width="385.377" height="39.55" fill="#6DE4A2" stroke="#0D052C" stroke-width="1.5" stroke-linecap="round" stroke-linejoin="round"/>
<path d="M465.042 172.72L-72.0497 172.72L-72.0497 133.18L532.357 133.18C536.154 133.18 539.231 134.711 539.231 136.6L539.231 169.3C539.231 171.189 536.154 172.72 532.357 172.72L487.755 172.72" fill="#FF81AF"/>
<path d="M465.042 172.72L-72.0497 172.72L-72.0497 133.18L532.357 133.18C536.154 133.18 539.231 134.711 539.231 136.6L539.231 169.3C539.231 171.189 536.154 172.72 532.357 172.72L487.755 172.72" stroke="#0D052C" stroke-width="1.5" stroke-linecap="round" stroke-linejoin="round"/>
<path d="M-71.9697 172.72L415.757 172.72L415.757 208.09C415.757 209.3 413.786 210.28 411.355 210.28L-71.9697 210.28L-71.9697 172.72Z" fill="#FFE483" stroke="#0D052C" stroke-width="1.5" stroke-linecap="round" stroke-linejoin="round"/>
<path d="M-71.9697 210.27L200.184 210.27L200.184 246.69C200.184 248.419 197.368 249.82 193.893 249.82L-65.7186 249.82C-67.3765 249.82 -68.9665 249.492 -70.1388 248.909C-71.3111 248.326 -71.9697 247.535 -71.9697 246.71L-71.9697 210.27Z" fill="#47DDDF" stroke="#0D052C" stroke-width="1.5" stroke-linecap="round" stroke-linejoin="round"/>
<path d="M314.012 183.65L298.635 187.91" stroke="#0D052C" stroke-width="1.5" stroke-linecap="round" stroke-linejoin="round"/>
<path d="M304.223 192.33L297.992 194.06" stroke="#0D052C" stroke-width="1.5" stroke-linecap="round" stroke-linejoin="round"/>
<path d="M324.102 186.83L309.469 190.88" stroke="#0D052C" stroke-width="1.5" stroke-linecap="round" stroke-linejoin="round"/>
<path d="M320.423 193.82L311.82 196.2" stroke="#0D052C" stroke-width="1.5" stroke-linecap="round" stroke-linejoin="round"/>
<path d="M67.083 29.03L51.6864 33.29" stroke="#0D052C" stroke-width="1.5" stroke-linecap="round" stroke-linejoin="round"/>
<path d="M77.1729 32.21L51.063 39.44" stroke="#0D052C" stroke-width="1.5" stroke-linecap="round" stroke-linejoin="round"/>
<path d="M73.4941 39.2L64.8712 41.58" stroke="#0D052C" stroke-width="1.5" stroke-linecap="round" stroke-linejoin="round"/>
</svg>
